{"glyphs":{":":{"x_min":0,"x_max":238,"ha":238,"o":"m 79 38 q 79 86 118 86 q 158 86 158 38 q 158 -10 118 -10 q 79 -10 79 38 z m 79 474 q 79 522 118 522 q 158 522 158 474 q 158 448 147 437 q 135 426 118 426 q 102 426 90 437 q 79 448 79 474 z"},"$":{"x_min":0,"x_max":571,"ha":571,"o":"m 484 215 q 484 150 436 109 q 387 68 302 57 l 302 -58 l 262 -58 l 262 55 q 217 56 164 66 q 111 76 80 91 l 80 141 q 117 124 168 111 q 219 99 262 99 l 262 347 q 191 369 157 390 q 123 412 107 441 q 92 470 92 512 q 92 573 138 614 q 184 655 262 665 l 262 759 l 302 759 l 302 666 q 398 662 473 631 l 457 587 q 388 617 302 622 l 302 385 q 406 353 445 314 q 484 276 484 215 z m 430 217 q 430 258 399 285 q 369 312 302 332 l 302 102 q 361 108 396 139 q 430 169 430 217 z m 145 512 q 145 470 173 443 q 201 417 262 398 l 262 619 q 204 611 175 582 q 145 553 145 512 z"},"?":{"x_min":0,"x_max":421,"ha":421,"o":"m 143 184 l 143 202 q 143 262 161 300 q 180 338 229 382 l 273 420 q 309 450 324 479 q 339 509 339 547 q 339 609 298 646 q 257 682 191 682 q 152 682 119 674 q 85 665 46 646 l 28 685 q 82 708 118 716 q 154 724 193 724 q 282 724 333 676 q 385 628 385 544 q 385 511 376 486 q 367 461 351 440 q 335 418 313 399 q 291 379 263 356 q 232 330 215 308 q 198 286 191 262 q 183 238 183 191 l 183 184 z m 127 38 q 127 86 166 86 q 206 86 206 38 q 206 -10 166 -10 q 127 -10 127 38 z"},"<":{"x_min":0,"x_max":571,"ha":571,"o":"m 517 130 l 54 333 l 54 363 l 517 594 l 517 548 l 115 350 l 517 177 z"},"'":{"x_min":0,"x_max":192,"ha":192,"o":"m 127 714 l 111 456 l 81 456 l 65 714 z"},"=":{"x_min":0,"x_max":571,"ha":571,"o":"m 54 432 l 54 472 l 517 472 l 517 432 z m 54 233 l 54 273 l 517 273 l 517 233 z"},"a":{"x_min":0,"x_max":530,"ha":530,"o":"m 411 0 l 399 84 l 395 84 q 355 33 313 11 q 271 -10 213 -10 q 135 -10 91 30 q 48 70 48 141 q 48 219 113 262 q 177 305 300 307 l 401 310 l 401 345 q 401 421 370 459 q 339 498 271 498 q 197 498 118 457 l 100 499 q 188 540 273 540 q 360 540 404 495 q 447 449 447 353 l 447 0 z m 216 34 q 301 34 350 83 q 399 131 399 218 l 399 270 l 306 266 q 194 261 147 231 q 99 202 99 139 q 99 89 130 62 q 160 34 216 34 z"},"L":{"x_min":0,"x_max":513,"ha":513,"o":"m 101 0 l 101 714 l 151 714 l 151 47 l 491 47 l 491 0 z"},"3":{"x_min":0,"x_max":571,"ha":571,"o":"m 478 546 q 478 479 436 434 q 395 389 324 376 l 324 373 q 410 362 455 318 q 500 274 500 200 q 500 100 432 45 q 364 -10 236 -10 q 127 -10 46 31 l 46 79 q 87 58 138 45 q 189 33 234 33 q 342 33 396 77 q 450 121 450 200 q 450 271 395 309 q 339 347 232 347 l 155 347 l 155 394 l 233 394 q 322 394 374 436 q 426 479 426 551 q 426 610 384 646 q 341 682 273 682 q 220 682 176 667 q 132 652 77 616 l 53 649 q 95 684 153 704 q 212 724 272 724 q 371 724 424 677 q 478 631 478 546 z"},";":{"x_min":0,"x_max":238,"ha":238,"o":"m 148 116 l 154 106 q 117 -23 69 -129 l 37 -129 q 51 -82 67 -9 q 83 63 91 116 z m 79 474 q 79 522 118 522 q 158 522 158 474 q 158 448 147 437 q 135 426 118 426 q 102 426 90 437 q 79 448 79 474 z"},"J":{"x_min":0,"x_max":247,"ha":247,"o":"m -16 -180 q -61 -180 -90 -167 l -90 -124 q -52 -134 -17 -134 q 101 -134 101 -5 l 101 714 l 151 714 l 151 0 q 151 -180 -16 -180 z"},"V":{"x_min":0,"x_max":577,"ha":577,"o":"m 523 714 l 577 714 l 310 0 l 266 0 l 0 714 l 53 714 l 233 228 q 274 118 288 63 q 298 100 327 177 z"},"\"":{"x_min":0,"x_max":353,"ha":353,"o":"m 127 714 l 111 456 l 81 456 l 65 714 z m 288 714 l 272 456 l 242 456 l 226 714 z"},"7":{"x_min":0,"x_max":571,"ha":571,"o":"m 163 0 l 457 667 l 53 667 l 53 714 l 515 714 l 515 678 l 220 0 z"},"S":{"x_min":0,"x_max":545,"ha":545,"o":"m 495 184 q 495 95 429 42 q 364 -10 255 -10 q 124 -10 54 19 l 54 69 q 131 36 251 36 q 339 36 390 76 q 442 117 442 182 q 442 223 425 249 q 408 276 369 298 q 331 320 256 345 q 146 383 105 427 q 63 470 63 543 q 63 623 126 674 q 188 724 287 724 q 388 724 476 686 l 458 643 q 369 680 288 680 q 209 680 162 644 q 115 607 115 544 q 115 504 130 479 q 144 454 177 433 q 209 413 289 385 q 373 356 415 329 q 457 302 476 267 q 495 233 495 184 z"},"}":{"x_min":0,"x_max":353,"ha":353,"o":"m 163 144 q 163 204 185 235 q 207 266 254 276 l 254 280 q 207 290 185 321 q 163 352 163 416 l 163 565 q 163 615 133 641 q 103 667 35 670 l 35 714 q 120 714 166 676 q 211 638 211 565 l 211 394 q 211 345 238 322 q 264 298 323 297 l 323 258 q 211 256 211 156 l 211 -9 q 211 -84 171 -121 q 130 -158 35 -158 l 35 -114 q 104 -113 134 -88 q 163 -63 163 -13 z"},"Z":{"x_min":0,"x_max":576,"ha":576,"o":"m 536 0 l 40 0 l 40 37 l 458 667 l 59 667 l 59 714 l 525 714 l 525 677 l 106 47 l 536 47 z"},"x":{"x_min":0,"x_max":498,"ha":498,"o":"m 219 273 l 34 531 l 90 531 l 248 307 l 405 531 l 458 531 l 276 273 l 471 0 l 415 0 l 248 237 l 80 0 l 27 0 z"},")":{"x_min":0,"x_max":272,"ha":272,"o":"m 232 274 q 232 146 194 35 q 156 -76 85 -158 l 31 -158 q 179 39 179 275 q 179 400 141 513 q 102 625 30 714 l 85 714 q 157 628 194 515 q 232 402 232 274 z"},"&":{"x_min":0,"x_max":713,"ha":713,"o":"m 60 181 q 60 249 96 296 q 132 343 230 396 l 193 436 q 161 471 146 504 q 130 537 130 573 q 130 643 177 684 q 223 725 302 725 q 377 725 422 686 q 466 646 466 576 q 466 525 432 482 q 397 439 308 387 l 529 164 q 559 199 580 241 q 601 282 616 339 l 663 339 q 632 219 561 131 l 691 0 l 625 0 l 531 96 q 486 52 451 32 q 416 12 374 1 q 332 -10 279 -10 q 177 -10 118 41 q 60 91 60 181 z m 282 34 q 345 34 397 55 q 449 77 499 127 l 263 364 q 197 329 167 304 q 138 279 124 250 q 111 222 111 183 q 111 113 156 74 q 202 34 282 34 z m 182 574 q 182 536 202 503 q 221 470 276 418 q 354 459 384 496 q 414 532 414 578 q 414 624 384 653 q 354 681 302 681 q 246 681 214 653 q 182 625 182 574 z"},"_":{"x_min":0,"x_max":411,"ha":411,"o":"m 413 -130 l -2 -130 l -2 -90 l 413 -90 z"},"v":{"x_min":0,"x_max":459,"ha":459,"o":"m 205 0 l 0 531 l 50 531 l 187 170 q 214 101 228 49 l 231 49 q 251 115 272 171 l 409 531 l 459 531 l 254 0 z"},"O":{"x_min":0,"x_max":764,"ha":764,"o":"m 701 358 q 701 188 616 89 q 531 -10 382 -10 q 233 -10 148 89 q 63 188 63 359 q 63 529 149 627 q 234 725 383 725 q 532 725 617 627 q 701 528 701 358 z m 117 358 q 117 205 186 121 q 254 37 382 37 q 511 37 579 120 q 647 203 647 358 q 647 512 579 594 q 511 677 383 677 q 255 677 186 594 q 117 511 117 358 z"},"(":{"x_min":0,"x_max":272,"ha":272,"o":"m 40 274 q 40 403 78 516 q 116 629 187 714 l 242 714 q 170 625 131 512 q 93 400 93 275 q 93 39 241 -158 l 187 -158 q 115 -75 78 36 q 40 146 40 274 z"},"C":{"x_min":0,"x_max":621,"ha":621,"o":"m 406 679 q 271 679 194 593 q 117 507 117 358 q 117 205 190 121 q 263 36 398 36 q 488 36 563 59 l 563 15 q 492 -10 386 -10 q 236 -10 149 87 q 63 185 63 359 q 63 468 104 551 q 146 634 223 679 q 300 724 403 724 q 507 724 590 685 l 570 640 q 492 679 406 679 z"},"W":{"x_min":0,"x_max":892,"ha":892,"o":"m 670 0 l 629 0 l 472 551 q 453 619 443 662 q 435 620 421 564 q 406 509 263 0 l 221 0 l 25 714 l 77 714 l 202 254 q 209 226 216 202 q 222 179 227 158 q 232 137 237 118 q 241 99 244 79 q 256 146 294 281 l 416 714 l 471 714 l 614 217 q 639 131 650 78 q 656 113 666 153 q 676 192 817 714 l 867 714 z"},"A":{"x_min":0,"x_max":600,"ha":600,"o":"m 445 252 l 155 252 l 55 0 l 0 0 l 287 717 l 319 717 l 600 0 l 544 0 z m 173 297 l 428 297 l 331 554 q 319 584 302 638 q 289 591 273 553 z"},"f":{"x_min":0,"x_max":300,"ha":300,"o":"m 286 489 l 161 489 l 161 0 l 113 0 l 113 489 l 14 489 l 14 517 l 113 535 l 113 576 q 113 674 149 719 q 185 765 266 765 q 310 765 354 752 l 343 710 q 304 722 265 722 q 208 722 185 689 q 161 655 161 580 l 161 531 l 286 531 z"},"Q":{"x_min":0,"x_max":764,"ha":764,"o":"m 701 358 q 701 214 640 120 q 578 26 469 0 l 632 -170 l 551 -170 l 413 -9 l 397 -10 l 382 -10 q 233 -10 148 89 q 63 188 63 359 q 63 529 149 627 q 234 725 383 725 q 532 725 617 627 q 701 528 701 358 z m 117 358 q 117 205 186 121 q 254 37 382 37 q 511 37 579 120 q 647 203 647 358 q 647 512 579 594 q 511 677 383 677 q 255 677 186 594 q 117 511 117 358 z"},"w":{"x_min":0,"x_max":723,"ha":723,"o":"m 513 0 l 397 355 q 386 391 368 461 l 365 461 l 355 425 l 333 354 l 215 0 l 167 0 l 15 531 l 67 531 l 152 223 q 182 109 191 55 l 194 55 q 223 169 236 207 l 345 531 l 389 531 l 493 208 q 528 93 536 56 l 539 56 q 543 88 578 226 l 659 531 l 708 531 l 564 0 z"},"-":{"x_min":0,"x_max":322,"ha":322,"o":"m 45 250 l 45 290 l 277 290 l 277 250 z"},"E":{"x_min":0,"x_max":552,"ha":552,"o":"m 491 0 l 101 0 l 101 714 l 491 714 l 491 668 l 151 668 l 151 398 l 472 398 l 472 352 l 151 352 l 151 46 l 491 46 z"},"s":{"x_min":0,"x_max":466,"ha":466,"o":"m 418 138 q 418 67 364 29 q 310 -10 210 -10 q 104 -10 41 23 l 41 75 q 121 35 210 35 q 289 35 329 61 q 370 87 370 131 q 370 171 338 198 q 305 226 231 252 q 151 281 119 302 q 87 322 71 348 q 54 375 54 412 q 54 472 104 506 q 154 541 244 541 q 330 541 407 509 l 389 465 q 311 497 244 497 q 179 497 141 476 q 103 454 103 416 q 103 375 133 350 q 162 325 248 294 q 320 268 353 247 q 385 227 402 200 q 418 174 418 138 z"},">":{"x_min":0,"x_max":571,"ha":571,"o":"m 54 177 l 456 350 l 54 548 l 54 594 l 517 363 l 517 333 l 54 130 z"},"l":{"x_min":0,"x_max":226,"ha":226,"o":"m 137 0 l 89 0 l 89 760 l 137 760 z"},"8":{"x_min":0,"x_max":571,"ha":571,"o":"m 284 726 q 375 726 430 680 q 486 633 486 554 q 486 500 451 458 q 417 416 340 380 q 434 341 472 295 q 510 250 510 184 q 510 96 448 43 q 386 -10 282 -10 q 174 -10 117 40 q 59 89 59 183 q 59 247 100 295 q 140 344 225 378 q 146 415 114 456 q 82 498 82 555 q 82 606 108 645 q 134 684 180 705 q 227 726 284 726 z m 109 176 q 109 108 155 71 q 200 34 282 34 q 362 34 411 73 q 460 113 460 180 q 460 241 422 279 q 383 316 274 358 q 184 323 146 281 q 109 239 109 176 z m 283 682 q 214 682 173 648 q 131 614 131 555 q 131 521 146 495 q 162 469 191 448 q 220 426 288 398 q 368 429 402 466 q 437 503 437 555 q 437 614 396 648 q 354 682 283 682 z"},"\\":{"x_min":0,"x_max":341,"ha":341,"o":"m 62 714 l 329 0 l 279 0 l 12 714 z"},"e":{"x_min":0,"x_max":549,"ha":549,"o":"m 303 -10 q 188 -10 123 62 q 58 133 58 261 q 58 388 121 465 q 183 541 289 541 q 383 541 437 476 q 491 410 491 298 l 491 259 l 109 259 q 110 149 160 92 q 210 34 303 34 q 349 34 383 41 q 417 47 470 68 l 470 24 q 425 4 387 -3 q 349 -10 303 -10 z m 289 498 q 212 498 166 448 q 120 397 112 302 l 440 302 q 440 394 400 446 q 360 498 289 498 z"},"b":{"x_min":0,"x_max":595,"ha":595,"o":"m 313 541 q 424 541 481 471 q 537 401 537 266 q 537 134 478 62 q 418 -10 311 -10 q 254 -10 209 14 q 164 37 137 80 l 133 80 l 119 0 l 89 0 l 89 760 l 137 760 l 137 569 q 137 526 135 490 l 134 448 l 137 448 q 167 496 210 519 q 253 541 313 541 z m 312 497 q 218 497 178 443 q 137 390 137 266 l 137 258 q 137 138 179 85 q 222 33 311 33 q 398 33 442 94 q 486 155 486 267 q 486 497 312 497 z"},"%":{"x_min":0,"x_max":807,"ha":807,"o":"m 103 501 q 103 410 125 365 q 147 319 194 319 q 288 319 288 501 q 288 591 264 636 q 240 681 194 681 q 147 681 125 636 q 103 591 103 501 z m 336 501 q 336 391 299 333 q 263 276 194 276 q 129 276 92 335 q 55 394 55 501 q 55 610 90 667 q 125 724 194 724 q 262 724 299 665 q 336 606 336 501 z m 519 214 q 519 124 541 78 q 563 33 610 33 q 704 33 704 214 q 704 394 610 394 q 563 394 541 349 q 519 305 519 214 z m 752 214 q 752 104 716 46 q 680 -11 611 -11 q 544 -11 508 48 q 471 107 471 214 q 471 324 507 380 q 543 437 611 437 q 678 437 715 378 q 752 320 752 214 z m 625 714 l 229 0 l 182 0 l 578 714 z"},"m":{"x_min":0,"x_max":883,"ha":883,"o":"m 752 0 l 752 348 q 752 426 722 461 q 691 497 629 497 q 547 497 508 452 q 469 407 469 311 l 469 0 l 420 0 l 420 363 q 420 497 297 497 q 213 497 175 448 q 137 400 137 293 l 137 0 l 89 0 l 89 531 l 129 531 l 139 458 l 142 458 q 164 498 205 519 q 245 541 294 541 q 419 541 455 447 l 457 447 q 483 492 527 517 q 570 541 626 541 q 713 541 756 495 q 800 448 800 347 l 800 0 z"},"#":{"x_min":0,"x_max":646,"ha":646,"o":"m 472 453 l 435 259 l 583 259 l 583 220 l 427 220 l 385 0 l 341 0 l 384 220 l 208 220 l 166 0 l 123 0 l 165 220 l 27 220 l 27 259 l 173 259 l 210 453 l 65 453 l 65 492 l 217 492 l 259 714 l 303 714 l 260 492 l 438 492 l 481 714 l 523 714 l 480 492 l 619 492 l 619 453 z m 215 259 l 392 259 l 430 453 l 253 453 z"},",":{"x_min":0,"x_max":215,"ha":215,"o":"m 144 116 l 150 106 q 113 -23 65 -129 l 33 -129 q 71 5 87 116 z"},"n":{"x_min":0,"x_max":590,"ha":590,"o":"m 459 0 l 459 344 q 459 424 425 461 q 392 497 321 497 q 226 497 181 449 q 137 401 137 293 l 137 0 l 89 0 l 89 531 l 130 531 l 139 458 l 142 458 q 194 541 326 541 q 507 541 507 347 l 507 0 z"},"h":{"x_min":0,"x_max":590,"ha":590,"o":"m 459 0 l 459 344 q 459 424 425 461 q 392 497 321 497 q 226 497 181 449 q 137 401 137 293 l 137 0 l 89 0 l 89 760 l 137 760 l 137 518 l 135 450 l 138 450 q 168 498 213 520 q 259 541 326 541 q 507 541 507 347 l 507 0 z"},"z":{"x_min":0,"x_max":461,"ha":461,"o":"m 419 0 l 40 0 l 40 31 l 355 488 l 63 488 l 63 531 l 418 531 l 418 500 l 101 43 l 419 43 z"},"B":{"x_min":0,"x_max":627,"ha":627,"o":"m 101 714 l 297 714 q 429 714 491 669 q 553 624 553 533 q 553 471 515 430 q 478 389 405 377 l 405 374 q 490 361 531 320 q 571 279 571 205 q 571 106 505 53 q 440 0 320 0 l 101 0 z m 151 396 l 308 396 q 409 396 454 429 q 500 463 500 534 q 500 605 448 638 q 397 670 295 670 l 151 670 z m 151 352 l 151 44 l 319 44 q 517 44 517 205 q 517 352 308 352 z"},"K":{"x_min":0,"x_max":581,"ha":581,"o":"m 581 0 l 520 0 l 246 377 l 151 293 l 151 0 l 101 0 l 101 714 l 151 714 l 151 343 l 230 422 l 510 714 l 573 714 l 281 412 z"},"R":{"x_min":0,"x_max":594,"ha":594,"o":"m 151 311 l 151 0 l 101 0 l 101 714 l 271 714 q 404 714 467 665 q 531 616 531 517 q 531 445 493 396 q 455 347 378 325 l 572 0 l 512 0 l 328 311 z m 151 354 l 287 354 q 377 354 427 394 q 477 435 477 513 q 477 595 428 632 q 379 669 269 669 l 151 669 z"},"T":{"x_min":0,"x_max":524,"ha":524,"o":"m 287 0 l 237 0 l 237 667 l 5 667 l 5 714 l 519 714 l 519 667 l 287 667 z"},"P":{"x_min":0,"x_max":585,"ha":585,"o":"m 531 509 q 531 405 460 350 q 390 295 261 295 l 151 295 l 151 0 l 101 0 l 101 714 l 276 714 q 531 714 531 509 z m 151 338 l 249 338 q 370 338 423 378 q 477 417 477 507 q 477 589 426 629 q 375 669 269 669 l 151 669 z"},"|":{"x_min":0,"x_max":541,"ha":541,"o":"m 248 762 l 293 762 l 293 -247 l 248 -247 z"},"t":{"x_min":0,"x_max":335,"ha":335,"o":"m 229 33 q 275 33 309 41 l 309 2 q 274 -10 228 -10 q 158 -10 124 28 q 91 65 91 146 l 91 489 l 12 489 l 12 517 l 91 539 l 115 659 l 140 659 l 140 531 l 296 531 l 296 489 l 140 489 l 140 153 q 140 92 162 62 q 183 33 229 33 z"},"M":{"x_min":0,"x_max":863,"ha":863,"o":"m 415 0 l 149 659 l 145 659 q 149 599 149 535 l 149 0 l 101 0 l 101 714 l 178 714 l 431 86 l 434 86 l 687 714 l 762 714 l 762 0 l 712 0 l 712 541 q 712 598 718 658 l 714 658 l 447 0 z"},"g":{"x_min":0,"x_max":523,"ha":523,"o":"m 503 531 l 503 497 l 393 490 q 437 436 437 370 q 437 293 386 246 q 335 198 249 198 q 213 198 198 201 q 169 186 154 166 q 139 145 139 122 q 139 97 158 85 q 178 73 223 73 l 316 73 q 402 73 448 38 q 494 3 494 -65 q 494 -149 426 -195 q 358 -240 232 -240 q 132 -240 77 -202 q 22 -163 22 -94 q 22 -40 56 -3 q 90 33 148 46 q 124 56 110 75 q 95 94 95 118 q 95 171 163 212 q 117 231 91 272 q 65 312 65 365 q 65 445 115 493 q 166 541 252 541 q 304 541 333 531 z m 73 -90 q 73 -199 236 -199 q 445 -199 445 -66 q 445 -18 412 3 q 379 25 306 25 l 219 25 q 73 25 73 -90 z m 114 365 q 114 304 151 270 q 188 236 251 236 q 317 236 353 270 q 388 303 388 367 q 388 435 352 469 q 315 503 250 503 q 187 503 150 467 q 114 430 114 365 z"},"j":{"x_min":0,"x_max":226,"ha":226,"o":"m 18 -240 q -21 -240 -48 -228 l -48 -186 q -14 -196 15 -196 q 89 -196 89 -110 l 89 531 l 137 531 l 137 -103 q 137 -169 106 -205 q 75 -240 18 -240 z m 82 678 q 82 725 113 725 q 128 725 136 713 q 145 701 145 678 q 145 656 136 644 q 128 631 113 631 q 82 631 82 678 z"},"i":{"x_min":0,"x_max":226,"ha":226,"o":"m 137 0 l 89 0 l 89 531 l 137 531 z m 82 678 q 82 725 113 725 q 128 725 136 713 q 145 701 145 678 q 145 656 136 644 q 128 631 113 631 q 82 631 82 678 z"},"y":{"x_min":0,"x_max":459,"ha":459,"o":"m 0 531 l 50 531 l 162 233 q 213 96 227 48 l 230 48 q 250 111 297 236 l 409 531 l 459 531 l 221 -86 q 192 -161 173 -188 q 153 -214 127 -227 q 101 -240 64 -240 q 36 -240 2 -230 l 2 -188 q 30 -196 63 -196 q 88 -196 107 -184 q 126 -172 141 -148 q 157 -123 177 -70 q 197 -16 203 0 z"},"@":{"x_min":0,"x_max":886,"ha":886,"o":"m 831 354 q 831 243 787 175 q 743 108 667 108 q 624 108 596 134 q 569 161 565 206 l 563 206 q 542 157 502 133 q 463 108 410 108 q 338 108 298 155 q 259 202 259 287 q 259 386 318 448 q 376 511 471 511 q 539 511 611 491 l 600 265 l 600 250 q 600 199 617 174 q 634 148 674 148 q 724 148 756 205 q 788 262 788 353 q 788 448 750 519 q 711 590 639 629 q 568 667 476 667 q 364 667 278 618 q 192 570 146 481 q 100 392 100 277 q 100 120 182 34 q 263 -52 413 -52 q 458 -52 505 -43 q 552 -34 618 -9 l 618 -57 q 519 -96 416 -96 q 246 -96 150 2 q 55 100 55 274 q 55 399 108 499 q 161 599 258 654 q 355 709 477 709 q 582 709 663 666 q 744 622 787 541 q 831 460 831 354 z m 309 288 q 309 218 336 183 q 363 148 421 148 q 545 148 554 317 l 562 459 q 523 472 468 472 q 395 472 352 422 q 309 372 309 288 z"},".":{"x_min":0,"x_max":238,"ha":238,"o":"m 79 38 q 79 86 118 86 q 158 86 158 38 q 158 -10 118 -10 q 79 -10 79 38 z"},"p":{"x_min":0,"x_max":595,"ha":595,"o":"m 316 -10 q 193 -10 137 82 l 134 82 l 135 41 q 137 5 137 -38 l 137 -240 l 89 -240 l 89 531 l 130 531 l 139 455 l 142 455 q 197 541 317 541 q 424 541 481 470 q 537 400 537 265 q 537 134 478 62 q 418 -10 316 -10 z m 315 33 q 396 33 441 94 q 486 154 486 263 q 486 497 317 497 q 224 497 181 446 q 137 395 137 280 l 137 264 q 137 140 179 86 q 221 33 315 33 z"},"X":{"x_min":0,"x_max":538,"ha":538,"o":"m 538 0 l 481 0 l 270 333 l 55 0 l 0 0 l 240 372 l 22 714 l 78 714 l 271 408 l 467 714 l 520 714 l 299 373 z"},"*":{"x_min":0,"x_max":551,"ha":551,"o":"m 308 760 l 290 562 l 488 613 l 498 549 l 305 530 l 426 364 l 365 329 l 272 514 l 184 329 l 123 364 l 241 530 l 51 549 l 60 613 l 256 562 l 237 760 z"},"Y":{"x_min":0,"x_max":528,"ha":528,"o":"m 265 323 l 474 714 l 528 714 l 290 276 l 290 0 l 239 0 l 239 272 l 0 714 l 57 714 z"},"c":{"x_min":0,"x_max":475,"ha":475,"o":"m 301 -10 q 187 -10 123 62 q 58 134 58 262 q 58 394 125 468 q 192 541 308 541 q 377 541 440 517 l 427 474 q 358 497 307 497 q 209 497 159 437 q 109 376 109 263 q 109 156 159 95 q 209 34 300 34 q 372 34 434 60 l 434 15 q 383 -10 301 -10 z"},"!":{"x_min":0,"x_max":240,"ha":240,"o":"m 135 184 l 105 184 l 91 714 l 149 714 z m 80 38 q 80 86 119 86 q 159 86 159 38 q 159 -10 119 -10 q 80 -10 80 38 z"},"/":{"x_min":0,"x_max":341,"ha":341,"o":"m 329 714 l 63 0 l 12 0 l 278 714 z"},"[":{"x_min":0,"x_max":319,"ha":319,"o":"m 294 -158 l 85 -158 l 85 714 l 294 714 l 294 668 l 133 668 l 133 -112 l 294 -112 z"},"6":{"x_min":0,"x_max":571,"ha":571,"o":"m 64 304 q 64 443 102 538 q 140 633 209 679 q 279 725 377 725 q 423 725 461 714 l 461 671 q 425 684 375 684 q 254 684 187 597 q 120 510 112 344 l 118 344 q 155 392 203 417 q 251 441 304 441 q 404 441 461 384 q 517 327 517 226 q 517 117 458 53 q 398 -10 298 -10 q 189 -10 127 73 q 64 156 64 304 z m 298 33 q 378 33 422 83 q 467 134 467 227 q 467 309 423 355 q 379 401 303 401 q 253 401 211 379 q 168 357 143 321 q 117 284 117 246 q 117 192 141 142 q 166 92 207 62 q 248 33 298 33 z"},"r":{"x_min":0,"x_max":389,"ha":389,"o":"m 298 541 q 332 541 370 534 l 361 488 q 328 496 292 496 q 224 496 181 438 q 137 381 137 293 l 137 0 l 89 0 l 89 531 l 130 531 l 135 435 l 138 435 q 171 494 208 517 q 245 541 298 541 z"},"2":{"x_min":0,"x_max":571,"ha":571,"o":"m 502 0 l 55 0 l 55 43 l 245 241 q 325 324 357 368 q 390 412 405 452 q 420 492 420 536 q 420 600 378 640 q 336 680 269 680 q 180 680 98 615 l 72 649 q 161 724 270 724 q 363 724 417 674 q 470 625 470 537 q 470 466 434 400 q 398 334 303 237 l 120 49 l 120 47 l 502 47 z"},"{":{"x_min":0,"x_max":353,"ha":353,"o":"m 190 -13 q 190 -63 219 -88 q 248 -112 318 -114 l 318 -158 q 223 -158 182 -122 q 142 -85 142 -9 l 142 156 q 142 256 30 258 l 30 297 q 89 298 116 322 q 142 346 142 394 l 142 565 q 142 711 318 714 l 318 670 q 250 667 220 642 q 190 616 190 565 l 190 416 q 190 353 168 321 q 147 290 99 280 l 99 276 q 146 266 168 235 q 190 204 190 144 z"},"9":{"x_min":0,"x_max":571,"ha":571,"o":"m 506 411 q 506 271 469 176 q 432 81 362 36 q 291 -10 191 -10 q 140 -10 97 3 l 97 45 q 118 38 148 34 q 177 31 193 31 q 313 31 382 118 q 450 205 458 372 l 452 372 q 417 325 367 300 q 318 275 264 275 q 165 275 110 330 q 54 384 54 485 q 54 592 115 659 q 176 725 273 725 q 343 725 396 688 q 449 651 477 580 q 506 509 506 411 z m 273 682 q 196 682 150 630 q 104 578 104 488 q 104 403 146 359 q 189 315 268 315 q 317 315 360 337 q 403 359 428 395 q 453 432 453 469 q 453 526 430 576 q 408 626 367 654 q 326 682 273 682 z"}," ":{"x_min":0,"x_max":260,"ha":260,"o":""},"I":{"x_min":0,"x_max":252,"ha":252,"o":"m 101 0 l 101 714 l 151 714 l 151 0 z"},"H":{"x_min":0,"x_max":719,"ha":719,"o":"m 618 0 l 568 0 l 568 351 l 151 351 l 151 0 l 101 0 l 101 714 l 151 714 l 151 397 l 568 397 l 568 714 l 618 714 z"},"4":{"x_min":0,"x_max":571,"ha":571,"o":"m 557 182 l 434 182 l 434 0 l 388 0 l 388 182 l 21 182 l 21 215 l 375 718 l 434 718 l 434 224 l 557 224 z m 388 224 l 388 428 q 388 576 395 676 l 391 676 q 381 658 331 584 l 79 224 z"},"~":{"x_min":0,"x_max":571,"ha":571,"o":"m 163 364 q 139 364 110 349 q 82 334 54 305 l 54 351 q 107 405 168 405 q 198 405 224 398 q 250 392 300 370 q 361 342 407 342 q 435 342 461 357 q 487 372 517 403 l 517 356 q 494 332 466 316 q 438 301 403 301 q 346 301 271 336 q 210 364 163 364 z"},"D":{"x_min":0,"x_max":706,"ha":706,"o":"m 643 364 q 643 184 549 92 q 455 0 272 0 l 101 0 l 101 714 l 294 714 q 465 714 554 625 q 643 535 643 364 z m 589 362 q 589 515 511 593 q 433 670 282 670 l 151 670 l 151 44 l 269 44 q 589 44 589 362 z"},"^":{"x_min":0,"x_max":571,"ha":571,"o":"m 43 274 l 270 719 l 303 719 l 528 274 l 479 274 l 286 660 l 92 274 z"},"0":{"x_min":0,"x_max":571,"ha":571,"o":"m 515 359 q 515 171 458 81 q 400 -10 284 -10 q 172 -10 114 83 q 56 176 56 359 q 56 545 113 635 q 169 725 284 725 q 397 725 456 632 q 515 539 515 359 z m 109 359 q 109 193 152 114 q 196 34 284 34 q 376 34 419 116 q 461 198 461 359 q 461 517 419 599 q 376 681 284 681 q 192 681 150 599 q 109 517 109 359 z"},"F":{"x_min":0,"x_max":502,"ha":502,"o":"m 151 0 l 101 0 l 101 714 l 492 714 l 492 668 l 151 668 l 151 365 l 473 365 l 473 319 l 151 319 z"},"`":{"x_min":0,"x_max":577,"ha":577,"o":"m 379 606 l 345 606 q 298 645 253 690 q 208 735 192 758 l 192 766 l 261 766 q 274 743 309 697 q 345 651 379 614 z"},"k":{"x_min":0,"x_max":484,"ha":484,"o":"m 136 233 l 407 531 l 466 531 l 257 304 l 484 0 l 426 0 l 224 268 l 137 189 l 137 0 l 89 0 l 89 760 l 137 760 l 137 379 l 134 233 z"},"u":{"x_min":0,"x_max":590,"ha":590,"o":"m 131 531 l 131 187 q 131 107 165 71 q 198 34 269 34 q 364 34 408 82 q 453 130 453 238 l 453 531 l 501 531 l 501 0 l 460 0 l 451 73 l 448 73 q 396 -10 264 -10 q 83 -10 83 184 l 83 531 z"},"]":{"x_min":0,"x_max":319,"ha":319,"o":"m 25 -112 l 186 -112 l 186 668 l 25 668 l 25 714 l 234 714 l 234 -158 l 25 -158 z"},"U":{"x_min":0,"x_max":719,"ha":719,"o":"m 626 714 l 626 252 q 626 129 555 60 q 483 -10 356 -10 q 232 -10 162 60 q 93 129 93 254 l 93 714 l 143 714 l 143 252 q 143 149 200 92 q 257 34 362 34 q 464 34 520 91 q 576 147 576 247 l 576 714 z"},"o":{"x_min":0,"x_max":586,"ha":586,"o":"m 528 266 q 528 136 465 63 q 402 -10 291 -10 q 221 -10 168 24 q 115 58 86 121 q 58 184 58 266 q 58 396 121 469 q 184 541 294 541 q 403 541 466 468 q 528 394 528 266 z m 109 266 q 109 157 157 95 q 205 34 293 34 q 381 34 429 95 q 477 157 477 266 q 477 376 428 437 q 380 497 292 497 q 204 497 156 437 q 109 376 109 266 z"},"N":{"x_min":0,"x_max":721,"ha":721,"o":"m 620 0 l 570 0 l 147 634 l 143 634 q 149 521 149 463 l 149 0 l 101 0 l 101 714 l 151 714 l 573 81 l 576 81 q 572 169 572 248 l 572 714 l 620 714 z"},"+":{"x_min":0,"x_max":571,"ha":571,"o":"m 305 373 l 517 373 l 517 333 l 305 333 l 305 122 l 265 122 l 265 333 l 54 333 l 54 373 l 265 373 l 265 585 l 305 585 z"},"G":{"x_min":0,"x_max":723,"ha":723,"o":"m 382 360 l 645 360 l 645 34 q 542 -10 412 -10 q 243 -10 153 86 q 63 181 63 356 q 63 465 108 549 q 152 633 236 679 q 319 725 427 725 q 543 725 636 682 l 616 637 q 523 680 424 680 q 283 680 200 593 q 117 506 117 358 q 117 197 196 115 q 274 34 427 34 q 525 34 594 62 l 594 313 l 382 313 z"},"q":{"x_min":0,"x_max":595,"ha":595,"o":"m 278 -10 q 173 -10 116 60 q 58 129 58 260 q 58 394 116 468 q 173 541 281 541 q 396 541 453 456 l 456 456 l 465 531 l 506 531 l 506 -240 l 458 -240 l 458 -38 q 458 21 461 83 l 458 83 q 400 -10 278 -10 z m 279 33 q 375 33 417 86 q 458 140 458 265 l 458 271 q 458 391 417 444 q 375 497 284 497 q 198 497 154 437 q 109 376 109 259 q 109 147 153 90 q 196 33 279 33 z"},"d":{"x_min":0,"x_max":595,"ha":595,"o":"m 283 541 q 341 541 383 520 q 425 499 458 448 l 461 448 q 458 510 458 569 l 458 760 l 506 760 l 506 0 l 474 0 l 462 81 l 458 81 q 397 -10 284 -10 q 174 -10 116 59 q 58 127 58 258 q 58 396 116 468 q 173 541 283 541 z m 283 497 q 196 497 153 436 q 109 375 109 259 q 109 33 284 33 q 374 33 416 85 q 458 138 458 258 l 458 266 q 458 389 417 443 q 375 497 283 497 z"},"1":{"x_min":0,"x_max":571,"ha":571,"o":"m 333 0 l 285 0 l 285 520 q 285 591 291 667 q 284 660 276 653 q 268 646 125 534 l 97 569 l 291 714 l 333 714 z"},"5":{"x_min":0,"x_max":571,"ha":571,"o":"m 262 429 q 376 429 442 374 q 508 319 508 222 q 508 112 439 51 q 371 -10 251 -10 q 198 -10 150 1 q 102 11 70 31 l 70 81 q 123 54 164 44 q 205 33 251 33 q 345 33 401 83 q 458 132 458 217 q 458 296 403 342 q 348 387 253 387 q 189 387 120 368 l 91 387 l 119 714 l 463 714 l 463 667 l 165 667 l 143 415 q 219 429 262 429 z"}}}
